<svg xmlns="http://www.w3.org/2000/svg" width="16" height="16" fill="none"><g clip-path="url(#a)"><rect width="16" height="16" fill="#404BBF" rx="2"/><g filter="url(#b)"><path fill="#F4F4FD" d="M11.446 4.255A.917.917 0 0 1 13 4.901a.928.928 0 0 1-.242.649l-4.894 6.154a.921.921 0 0 1-1.019.229.918.918 0 0 1-.306-.204L3.293 8.466a.925.925 0 0 1-.226-1.024.925.925 0 0 1 .87-.578.916.916 0 0 1 .656.294L7.162 9.74l4.26-5.458a.311.311 0 0 1 .025-.027h-.001Z"/></g></g><rect width="15" height="15" x=".5" y=".5" stroke="#404BBF" rx="1.5"/><defs><clipPath id="a"><rect width="16" height="16" fill="#fff" rx="2"/></clipPath><filter id="b" width="18" height="16" x="-1" y="4" color-interpolation-filters="sRGB" filterUnits="userSpaceOnUse"><feFlood flood-opacity="0" result="BackgroundImageFix"/><feColorMatrix in="SourceAlpha" result="hardAlpha" values="0 0 0 0 0 0 0 0 0 0 0 0 0 0 0 0 0 0 127 0"/><feOffset dy="4"/><feGaussianBlur stdDeviation="2"/><feComposite in2="hardAlpha" operator="out"/><feColorMatrix values="0 0 0 0 0 0 0 0 0 0 0 0 0 0 0 0 0 0 0.25 0"/><feBlend in2="BackgroundImageFix" result="effect1_dropShadow_297039_1166"/><feBlend in="SourceGraphic" in2="effect1_dropShadow_297039_1166" result="shape"/></filter></defs></svg>