<svg xmlns="http://www.w3.org/2000/svg" aria-hidden="true" style="position:absolute;width:0;height:0;overflow:hidden"><defs><symbol id="icon-antenna" viewBox="0 0 32 32"><path fill="#2e2f42" d="m30.773 22.098-8.443-8.505.937-4.615c.242.094.499.144.758.146h.006a2.159 2.159 0 1 0-2.008-1.435l-4.96.605L8.972.161a.534.534 0 0 0-.377-.16.532.532 0 0 0-.373.155L6.709 1.66a.534.534 0 0 0 0 .754l.814.826a14.943 14.943 0 0 0 2.519 17.663.513.513 0 0 0 .146.098c-.034.18-.051.364-.052.547v6.187h-6.4a2.67 2.67 0 0 0-2.667 2.667v1.067c0 .295.239.533.533.533h24.533a.533.533 0 0 0 .533-.533v-1.067a2.67 2.67 0 0 0-2.667-2.667h-6.4v-2.742a15.09 15.09 0 0 0 3.049.32 14.854 14.854 0 0 0 7.04-1.783l.818.823a.534.534 0 0 0 .377.16.532.532 0 0 0 .373-.155l1.513-1.504a.534.534 0 0 0 0-.754zM23.28 6.233a1.067 1.067 0 1 1 .753 1.822h-.003a1.067 1.067 0 0 1-.747-1.823h-.002zm-1.256 3.505-.598 2.946-1.175-1.182 1.774-1.763zm-.605-.902-1.92 1.909-1.485-1.493 3.405-.415zM24.004 28.8a1.6 1.6 0 0 1 1.6 1.6v.533H2.137V30.4a1.6 1.6 0 0 1 1.6-1.6h20.267zm-7.467-2.133v1.067h-5.333v-1.067h5.333zM11.204 25.6v-4.053c0-1.294 1.196-2.347 2.667-2.347s2.667 1.053 2.667 2.347V25.6h-5.333zm6.4-1.696v-2.357c0-1.882-1.675-3.413-3.733-3.413a3.8 3.8 0 0 0-3.281 1.786A13.87 13.87 0 0 1 8.311 4.033l18.602 18.708a13.818 13.818 0 0 1-9.309 1.163zm11.289-.684L7.836 2.039l.755-.752 7.935 7.98c.004 0 .006.007.01.01l13.115 13.191-.757.752z" style="fill:var(--color1, #2e2f42)"/><path fill="#4d5ae5" d="M13.876 20.267h-.005a1.6 1.6 0 1 0-.004 3.2h.005a1.6 1.6 0 1 0 .004-3.2zm.373 1.978a.534.534 0 0 1-.752-.756.534.534 0 0 1 .373-.155.534.534 0 0 1 .374.911h.005z" style="fill:var(--color2, #4d5ae5)"/></symbol><symbol id="icon-astronaut" viewBox="0 0 32 32"><path fill="#4d5ae5" d="M31.974 4.524a.534.534 0 0 0-.43-.363l-1.91-.278-.855-1.731c-.179-.365-.777-.365-.956 0l-.855 1.731-1.91.278a.535.535 0 0 0-.296.91l1.383 1.348-.326 1.903c-.034.2.048.402.212.522a.53.53 0 0 0 .562.04l1.709-.899 1.709.899a.536.536 0 0 0 .775-.563l-.326-1.903 1.383-1.348a.536.536 0 0 0 .135-.547zm-2.463 1.327a.534.534 0 0 0-.153.472l.191 1.114-1-.526a.533.533 0 0 0-.498 0l-1.001.526.191-1.114a.534.534 0 0 0-.153-.472l-.81-.789 1.119-.163a.532.532 0 0 0 .402-.292l.5-1.013.5 1.013a.535.535 0 0 0 .402.292l1.119.163-.809.789zM26.134 20.522h-1.067v1.067h1.067v-1.067zM26.134 22.656h-1.067v1.067h1.067v-1.067zM27.2 21.589h-1.067v1.067H27.2v-1.067zM25.067 21.589H24v1.067h1.067v-1.067zM22.4 26.389h-1.067v1.067H22.4v-1.067zM22.4 28.522h-1.067v1.067H22.4v-1.067zM23.467 27.456H22.4v1.067h1.067v-1.067zM21.333 27.456h-1.067v1.067h1.067v-1.067zM16 24.256h-1.067v1.067H16v-1.067zM16 26.389h-1.067v1.067H16v-1.067zM17.067 25.322H16v1.067h1.067v-1.067zM14.933 25.322h-1.067v1.067h1.067v-1.067zM5.867 6.122H4.8v1.067h1.067V6.122zM5.867 8.255H4.8v1.067h1.067V8.255z" style="fill:var(--color2, #4d5ae5)"/><path fill="#4d5ae5" d="M6.933 7.189H5.866v1.067h1.067V7.189zM4.8 7.189H3.733v1.067H4.8V7.189z" style="fill:var(--color2, #4d5ae5)"/><path fill="#2e2f42" d="M24.715 14.159a1.775 1.775 0 0 0-1.188-.705 1.778 1.778 0 0 0-1.34.352l-1.252.96-1.898 1.417-1.358-.541c2.421-1.086 4.114-3.508 4.114-6.32 0-3.823-3.123-6.933-6.961-6.933s-6.961 3.11-6.961 6.933a6.86 6.86 0 0 0 1.12 3.758l-2.764-.024h-.005c-.009 0-.015.004-.023.005a.515.515 0 0 0-.155.031l-.038.013c-.006.003-.013.003-.019.006l-3.233 1.596-.001.001-1.893.911a.397.397 0 0 0-.063.035 1.779 1.779 0 0 0-.598 2.295c.22.429.595.745 1.056.889a1.776 1.776 0 0 0 1.378-.128l1.388-.738 2.264-1.169 1.357-.008L2.2 22.211l-.002.001-1.339 1.333c-.316.315-.49.732-.49 1.178s.174.863.49 1.179c.325.323.752.485 1.179.485s.854-.162 1.18-.485l1.314-1.309 1.741-1.3.901.897-1.762 1.754-.002.001-1.339 1.333c-.316.315-.49.732-.49 1.178s.174.863.49 1.179c.325.323.753.485 1.18.485s.855-.162 1.18-.485l3.482-3.467.001-.002 1.01-1-.004-.004c.006-.006.015-.009.022-.015l5.166-5.658 3.471.494a.52.52 0 0 0 .262-.033c.018-.006.033-.015.05-.023.019-.01.039-.015.058-.027l3.213-2.133c.012-.008.018-.021.029-.029.013-.01.029-.014.041-.026l1.271-1.191c.662-.62.753-1.635.212-2.362zM2.13 17.77a.714.714 0 0 1-.558.052.717.717 0 0 1-.213-1.26l1.314-.632.449 1.313-.992.527zm3.498-1.828-1.548.8-.439-1.283 2.027-1.001-.04 1.484zm15.099-6.62a5.79 5.79 0 0 1-.599 2.559l-4.181-1.899a1.863 1.863 0 0 0-.788-1.388l1.464-4.86c2.378.756 4.105 2.974 4.105 5.588zm-11.789 0c0-3.235 2.644-5.867 5.894-5.867.253 0 .5.021.745.052l-1.432 4.754c-.019-.001-.037-.006-.057-.006-1.033 0-1.873.837-1.873 1.867s.84 1.867 1.873 1.867c.694 0 1.294-.383 1.618-.945l3.862 1.755a5.894 5.894 0 0 1-4.737 2.39c-3.25 0-5.894-2.632-5.894-5.867zm5.956.8c0 .441-.362.8-.806.8s-.806-.359-.806-.8c0-.441.362-.8.806-.8s.806.359.806.8zM2.465 25.146a.608.608 0 0 1-.854.001.592.592 0 0 1 0-.844l.962-.958.851.848-.959.955zm3.214 3.734a.608.608 0 0 1-.855.001.592.592 0 0 1 0-.844l.963-.959.852.848-.96.955zm3.481-3.469-.002.001-1.765 1.76-.852-.848 1.763-1.755.002-.001c.04-.04.065-.088.09-.135.007-.014.02-.026.026-.04.017-.041.019-.085.026-.129.003-.025.014-.047.014-.073 0-.036-.013-.07-.02-.106-.006-.032-.006-.065-.019-.095a.55.55 0 0 0-.091-.138c-.01-.012-.014-.027-.025-.038h-.001l-.001-.002-1.607-1.6c-.017-.017-.039-.024-.058-.038a.507.507 0 0 0-.087-.058.515.515 0 0 0-.093-.033.507.507 0 0 0-.103-.02.5.5 0 0 0-.095.005.53.53 0 0 0-.104.02.477.477 0 0 0-.094.045c-.02.011-.042.015-.061.029L4.23 23.486l-.901-.897 2.399-2.386 4.361 4.289-.928.919zm6.819-7.017c-.015-.002-.03.004-.045.003a.556.556 0 0 0-.3.075.492.492 0 0 0-.083.061c-.013.011-.028.017-.04.029l-4.698 5.146-4.328-4.257 2.833-2.818a.534.534 0 0 0-.379-.911v-.001l-2.219.013.028-1.607 3.104.027a6.947 6.947 0 0 0 4.981 2.101c.437 0 .864-.045 1.279-.123.04.032.079.065.13.085l2.41.96.152.758.178.885-3.003-.427zm4.041.178-.313-1.558 1.446-1.08.947 1.257-2.08 1.381zm3.754-2.831-.838.785-.931-1.236.831-.637a.735.735 0 0 1 .543-.143.718.718 0 0 1 .48.284.713.713 0 0 1-.085.947z" style="fill:var(--color1, #2e2f42)"/><path fill="#2e2f42" d="m13.602 18.544-2.143-2.133a.534.534 0 0 0-.753 0l-2.142 2.133a.537.537 0 0 0 0 .756l2.142 2.133a.536.536 0 0 0 .753 0l2.143-2.133a.535.535 0 0 0 0-.756zm-2.519 1.759-1.387-1.381 1.387-1.381 1.387 1.381-1.387 1.381zM17.164 5.071l-.258 1.036c.071.018 1.738.452 1.738 2.149h1.067c0-2.017-1.666-2.965-2.547-3.185zM19.711 9.322h-1.067v1.067h1.067V9.322z" style="fill:var(--color1, #2e2f42)"/></symbol><symbol id="icon-clock" viewBox="0 0 32 32"><path fill="#2e2f42" d="M31.297 15.301C31.295 6.849 24.442-.002 15.989 0S.686 6.855.688 15.308a15.304 15.304 0 0 0 10.649 14.576.662.662 0 0 0 .529-.065.637.637 0 0 0 .283-.356l3.865-12.25a1.912 1.912 0 1 0-.84-3.635l-5.106-5.107a.637.637 0 0 0-.902.902l5.103 5.109a1.876 1.876 0 0 0 .536 2.309l-3.683 11.673C3.844 25.783.118 17.71 2.799 10.432S13.553-.572 20.831 2.109c7.278 2.681 11.004 10.754 8.323 18.032a14.042 14.042 0 0 1-7.462 7.973l-.398-1.874a.637.637 0 0 0-1.049-.344l-3.837 3.426a.637.637 0 0 0 .231 1.084l4.899 1.564a.638.638 0 0 0 .819-.74l-.391-1.839a15.255 15.255 0 0 0 9.329-14.089zm-15.305-.637a.638.638 0 1 1 0 1.277.638.638 0 0 1 0-1.277zm2.101 14.864 2.184-1.948.603 2.84-2.787-.892z" style="fill:var(--color1, #2e2f42)"/><path fill="#4d5ae5" d="M15.354 3.185V4.46a.638.638 0 1 0 1.276 0V3.185a.638.638 0 0 0-1.276 0zM3.876 14.664a.638.638 0 0 0 0 1.276h1.275a.638.638 0 1 0 0-1.276H3.876zM28.108 15.939a.638.638 0 1 0 0-1.276h-1.275a.638.638 0 0 0 0 1.276h1.275z" style="fill:var(--color2, #4d5ae5)"/></symbol><symbol id="icon-diagram" viewBox="0 0 32 32"><path fill="#4d5ae5" d="M14.926 14.965h1.066v4.798h-1.066v-4.797zM19.19 17.097h1.066v2.665H19.19v-2.665zM10.661 18.696h1.066v1.066h-1.066v-1.066zM7.463 18.163h1.066v1.599H7.463v-1.599z" style="fill:var(--color2, #4d5ae5)"/><path fill="#2e2f42" d="M1.599 28.291h25.587a1.6 1.6 0 0 0 1.599-1.599V24.56a1.6 1.6 0 0 0-1.599-1.599h-.533V9.668L29.681 6.8a1.608 1.608 0 1 0-.746-.763L26.654 8.2V6.97a1.6 1.6 0 0 0-1.599-1.599H3.733A1.6 1.6 0 0 0 2.134 6.97v15.992h-.533a1.6 1.6 0 0 0-1.599 1.599v2.132a1.6 1.6 0 0 0 1.599 1.599zM30.384 4.837a.533.533 0 1 1 0 1.067.533.533 0 0 1 0-1.067zM3.198 6.969c0-.294.239-.533.533-.533h21.322c.294 0 .533.239.533.533v2.239l-1.066 1.013V8.035a.533.533 0 0 0-.533-.533H4.797a.533.533 0 0 0-.533.533v13.326c0 .294.239.533.533.533h19.19a.533.533 0 0 0 .533-.533v-9.674l1.066-1.01v12.284H3.198V6.969zm4.798 6.93a1.598 1.598 0 1 0 1.107 2.749l1.853.93a.532.532 0 0 0 .636-.123l3.939-4.431 3.872 2.901a.533.533 0 0 0 .686-.039l3.365-3.188v8.131H5.33V8.569h18.124v2.66l-3.771 3.572-3.904-2.927a.533.533 0 0 0-.718.072l-3.993 4.493-1.493-.746c.011-.064.018-.129.02-.193a1.6 1.6 0 0 0-1.599-1.599zm.533 1.599a.533.533 0 1 1-1.067 0 .533.533 0 0 1 1.067 0zm3.198 8.529h5.331v.533a.533.533 0 0 1-.533.533h-4.264a.533.533 0 0 1-.533-.533v-.533zm-10.661.533c0-.294.239-.533.533-.533h9.062v.533a1.6 1.6 0 0 0 1.599 1.599h4.264a1.6 1.6 0 0 0 1.599-1.599v-.533h9.062c.294 0 .533.239.533.533v2.132a.533.533 0 0 1-.533.533H1.598a.533.533 0 0 1-.533-.533V24.56z" style="fill:var(--color1, #2e2f42)"/></symbol><symbol id="icon-facebook" viewBox="0 0 32 32"><path d="M21.329 5.313h2.921V.225C23.746.156 22.013 0 19.994 0c-4.212 0-7.097 2.649-7.097 7.519V12H8.249v5.688h4.648V32h5.699V17.689h4.46l.708-5.688h-5.169V8.082c.001-1.644.444-2.769 2.735-2.769z" style="fill:var(--color3, #f4f4fd)"/></symbol>
<symbol id="icon-group1" viewBox="0 0 25 32"><path d="M10.531 1.806h-.084a9.985 9.985 0 0 0-.388-.014h-.28c-.244 0-.494.006-.741.019a.523.523 0 0 0-.056 0 17.4 17.4 0 0 0-6.471 1.651l-.266.128v13.625l.623-.211a23.32 23.32 0 0 1 1.731-.513 21.155 21.155 0 0 1 4.982-.662v1.79a15.56 15.56 0 0 0-.655.019h-.051a19.948 19.948 0 0 0-3.833.588c-1.59.398-3.124.996-4.566 1.779V2.53A18.3 18.3 0 0 1 5.266.582 18.343 18.343 0 0 1 9.781 0h.263c.314.008.621.022.909.044.759.053 1.511.173 2.249.358v1.762a13.947 13.947 0 0 0-2.179-.329l-.045-.004c-.152-.013-.304-.026-.446-.026zm3.102 1.801c.391.03.796.044 1.205.044a19.352 19.352 0 0 0 4.747-.609c1.589-.4 3.123-.998 4.564-1.781v17.163a18.313 18.313 0 0 1-4.792 1.948 18.486 18.486 0 0 1-4.515.581 13.778 13.778 0 0 1-3.425-.404V3.274c.265.061.537.117.814.164.455.077.934.133 1.401.167zm8.734.133-.623.21c-.573.192-1.15.365-1.731.518a21.098 21.098 0 0 1-5.173.663c-.406 0-.78-.011-1.141-.034l-.497-.033v14.017l.427.038c.395.034.803.052 1.214.052a16.573 16.573 0 0 0 4.074-.527 17.107 17.107 0 0 0 3.184-1.144l.266-.128V3.742zM1.684 25.977a.912.912 0 0 0-.693-.28 1.034 1.034 0 0 0-.4.075.91.91 0 0 0-.512.518 1.023 1.023 0 0 0-.072.387v2.335c-.006.165.026.328.092.479.055.12.135.226.233.313a.815.815 0 0 0 .321.166c.114.032.231.048.349.049a.972.972 0 0 0 .892-.61.951.951 0 0 0 .075-.372v-.261h-.61v.208a.528.528 0 0 1-.036.208.359.359 0 0 1-.089.131.365.365 0 0 1-.128.067.425.425 0 0 1-.128.022.314.314 0 0 1-.286-.125.548.548 0 0 1-.081-.313v-2.177a.738.738 0 0 1 .075-.349.31.31 0 0 1 .299-.141.33.33 0 0 1 .272.131c.068.09.104.2.101.313v.202h.604v-.238a1.093 1.093 0 0 0-.279-.737zM5.31 25.95a1.051 1.051 0 0 0-1.38 0 .961.961 0 0 0-.237.327 1.099 1.099 0 0 0-.089.452v2.239a1.08 1.08 0 0 0 .089.459c.055.12.136.227.237.313a.94.94 0 0 0 .322.197 1.028 1.028 0 0 0 .728 0c.121-.044.233-.111.33-.197a.948.948 0 0 0 .23-.313 1.08 1.08 0 0 0 .089-.459v-2.239a1.08 1.08 0 0 0-.089-.452 1.015 1.015 0 0 0-.23-.327zm-.285 3.019a.405.405 0 0 1-.121.324.445.445 0 0 1-.574 0 .397.397 0 0 1-.121-.324V26.73a.405.405 0 0 1 .121-.324.445.445 0 0 1 .574 0 .397.397 0 0 1 .121.324v2.239zM10.072 29.969V25.73h-.587l-.771 2.244h-.011l-.777-2.244h-.581v4.239h.606V27.39h.011l.593 1.823h.302l.598-1.823h.011v2.579h.606zM13.513 26.027a.84.84 0 0 0-.343-.232 1.363 1.363 0 0 0-.439-.066h-.9v4.239h.604v-1.656h.311c.188.009.376-.031.545-.116a.882.882 0 0 0 .332-.324 1.02 1.02 0 0 0 .139-.369c.024-.16.035-.321.033-.482a2.421 2.421 0 0 0-.059-.606.898.898 0 0 0-.223-.39zm-.312 1.292a.547.547 0 0 1-.056.221.346.346 0 0 1-.156.149.619.619 0 0 1-.285.053h-.275v-1.441h.311a.578.578 0 0 1 .272.053.349.349 0 0 1 .142.157.62.62 0 0 1 .053.236v.282c0 .099.006.2 0 .291h-.006zM16.374 25.73h-.495l-.934 4.239h.604l.177-.911h.823l.177.911h.604l-.957-4.239zm-.557 2.751.297-1.537h.011l.296 1.537h-.604zM20.277 28.284h-.011l-.912-2.554h-.581v4.239h.604V27.42h.012l.923 2.549h.568V25.73h-.604v2.554zM23.968 25.73l-.486 1.685h-.012l-.486-1.685h-.64l.83 2.447v1.792h.604v-1.792l.83-2.447h-.64zM0 31.166h.291v.817h.198v-.817h.29v-.167H.001v.167zM2.447 30.998l-.381.984h.21l.081-.224h.392l.084.224h.215l-.391-.984h-.21zm-.031.595.134-.365.134.365h-.268zM4.866 31.62h.227v.127a.382.382 0 0 1-.234.083.244.244 0 0 1-.209-.093.411.411 0 0 1-.073-.257c0-.219.095-.329.283-.329a.206.206 0 0 1 .222.157l.195-.038c-.042-.192-.181-.289-.417-.289a.495.495 0 0 0-.344.127.494.494 0 0 0-.141.379.532.532 0 0 0 .126.369.477.477 0 0 0 .374.144.59.59 0 0 0 .417-.157v-.388h-.427v.166zM7.337 30.998h-.199v.984h.69v-.167h-.49v-.817zM9.426 30.998h-.199v.984h.199v-.984zM11.469 31.656l-.403-.657h-.193v.984h.185v-.643l.395.643h.198v-.984h-.182v.657zM13.315 31.549h.49v-.167h-.49v-.216h.528v-.167h-.727v.984h.747v-.167h-.548v-.266zM17.792 31.387h-.388v-.388h-.198v.984h.198v-.43h.388v.43h.198v-.984h-.198v.388zM19.649 31.549h.492v-.167h-.492v-.216h.529v-.167h-.727v.984h.746v-.167h-.548v-.266zM22.168 31.549c.171-.027.258-.117.258-.274a.236.236 0 0 0-.096-.219.553.553 0 0 0-.288-.058h-.417v.984h.198v-.412h.039a.261.261 0 0 1 .123.022.21.21 0 0 1 .07.072l.215.313h.237l-.12-.192a.685.685 0 0 0-.218-.236zm-.199-.136h-.146v-.247h.156a.526.526 0 0 1 .201.023c.014.013.026.029.033.046a.133.133 0 0 1-.005.111.128.128 0 0 1-.037.043.547.547 0 0 1-.201.023zM24.067 31.549h.49v-.167h-.49v-.216h.529v-.167h-.729v.984h.747v-.167h-.548v-.266z"/></symbol>
<symbol id="icon-group2" viewBox="0 0 34 32"><path d="M5.315 31.394c.013 0 .025.003.036.007s.022.011.03.019l.172.162a1.413 1.413 0 0 1-.485.307 1.897 1.897 0 0 1-.687.11 1.853 1.853 0 0 1-.646-.103 1.414 1.414 0 0 1-.487-.291 1.3 1.3 0 0 1-.315-.449 1.49 1.49 0 0 1-.11-.576 1.338 1.338 0 0 1 .453-1.027c.147-.127.323-.226.517-.293a2.07 2.07 0 0 1 .666-.103c.211-.004.422.028.618.094.171.063.327.151.463.26l-.144.173a.125.125 0 0 1-.037.031.098.098 0 0 1-.058.013.144.144 0 0 1-.062-.018l-.078-.046-.108-.059a1.198 1.198 0 0 0-.34-.103 1.567 1.567 0 0 0-.256-.018 1.421 1.421 0 0 0-.478.077 1.109 1.109 0 0 0-.375.217 1 1 0 0 0-.243.346 1.13 1.13 0 0 0-.088.457c-.003.158.027.315.088.464.053.127.134.244.239.344.099.093.221.166.358.214.141.05.292.075.444.074.088.001.176-.004.263-.015a1.068 1.068 0 0 0 .569-.237.13.13 0 0 1 .082-.029zM10.292 30.58c.003.195-.037.389-.116.573-.07.166-.181.318-.325.445s-.317.226-.509.292a2.14 2.14 0 0 1-1.31 0 1.514 1.514 0 0 1-.506-.293 1.291 1.291 0 0 1-.327-.449 1.473 1.473 0 0 1 0-1.147c.074-.167.185-.32.327-.451.144-.123.317-.218.506-.282.421-.14.889-.14 1.31 0 .191.066.365.166.508.293a1.316 1.316 0 0 1 .441 1.02zm-.453 0a1.196 1.196 0 0 0-.082-.46.941.941 0 0 0-.231-.344 1.012 1.012 0 0 0-.364-.217 1.533 1.533 0 0 0-.952 0 1.026 1.026 0 0 0-.364.217.926.926 0 0 0-.233.344c-.11.3-.11.621 0 .92a.939.939 0 0 0 .233.344c.101.094.225.168.364.215.307.098.645.098.952 0 .139-.048.263-.121.364-.215a.967.967 0 0 0 .231-.344c.058-.148.085-.304.082-.46zM13.687 31.062l.045.103c.017-.037.032-.07.05-.103a.833.833 0 0 1 .056-.101l1.101-1.71c.022-.029.041-.048.063-.053a.273.273 0 0 1 .09-.009h.325v2.781h-.386v-2.132a.769.769 0 0 1 0-.096l-1.107 1.734c-.014.026-.037.048-.065.063s-.061.023-.095.023h-.062c-.034 0-.066-.008-.095-.023s-.051-.037-.065-.064l-1.14-1.745V31.962h-.373v-2.776h.325a.336.336 0 0 1 .09.009c.027.011.048.03.06.053l1.125 1.712a.61.61 0 0 1 .056.099zM17.83 30.924v1.042h-.431v-2.777h.961c.181-.003.362.017.536.061.139.034.269.093.379.173a.718.718 0 0 1 .215.272.814.814 0 0 1 .073.355.774.774 0 0 1-.313.633c-.111.084-.24.146-.381.184a1.847 1.847 0 0 1-.519.064l-.521-.007zm0-.298h.521c.113.001.226-.013.334-.042a.727.727 0 0 0 .241-.12.532.532 0 0 0 .198-.418c.005-.077-.01-.154-.043-.226s-.085-.137-.151-.19a.935.935 0 0 0-.579-.149h-.521v1.145zM23.621 31.97h-.34a.164.164 0 0 1-.095-.026.171.171 0 0 1-.056-.064l-.293-.672h-1.471l-.304.672a.162.162 0 0 1-.151.091h-.34l1.293-2.782h.448l1.31 2.782zm-2.133-1.033h1.215l-.513-1.132a1.783 1.783 0 0 1-.097-.261l-.05.145a1.317 1.317 0 0 1-.047.118l-.509 1.13zM25.483 29.201a.18.18 0 0 1 .065.05l1.885 2.097v-2.16h.386v2.782h-.215a.2.2 0 0 1-.088-.017.224.224 0 0 1-.069-.052l-1.883-2.095a.769.769 0 0 1 0 .096v2.068h-.386v-2.782h.228a.206.206 0 0 1 .078.013zM30.993 30.863v1.104h-.431v-1.104l-1.191-1.675h.386a.158.158 0 0 1 .093.024.248.248 0 0 1 .058.063l.745 1.081c.03.046.056.088.078.129s.039.079.054.118l.056-.12a.947.947 0 0 1 .073-.127l.735-1.088a.26.26 0 0 1 .056-.059.15.15 0 0 1 .093-.028h.39l-1.194 1.683zM13.474 24.521c.187.02.377.037.569.052 2.907-1.111 5.366-2.93 7.07-5.228s2.577-4.975 2.511-7.696L20.42 8.912c.651 2.896.347 5.89-.88 8.647s-3.327 5.167-6.066 6.962z" /><path d="m12.33 24.393.086.015c2.927-1.789 5.158-4.286 6.406-7.17s1.454-6.021.592-9.006l-4.563-3.899c1.846 3.205 2.589 6.791 2.142 10.342s-2.063 6.921-4.663 9.718zM27.805 14.862c-.775 2.989-2.658 5.685-5.369 7.687a17.175 17.175 0 0 1-2.551 1.565c2.207-.554 4.236-1.534 5.93-2.865s3.008-2.975 3.84-4.808l-1.851-1.579z" /><path d="m27.079 14.422-2.635-2.251c-.05 2.567-.904 5.075-2.473 7.264s-3.795 3.98-6.448 5.185h.013c.591 0 1.182-.03 1.769-.09 2.479-.865 4.669-2.24 6.375-4.004s2.874-3.861 3.4-6.104zM12.711 2.689 9.568 0c-2.81.928-5.227 2.559-6.934 4.679S.009 9.311 0 11.885c.011 2.844 1.131 5.604 3.184 7.843s4.921 3.829 8.151 4.518c2.883-3.001 4.571-6.709 4.818-10.586s-.958-7.72-3.442-10.971zM34.341 14.008c-.011-3.374-1.585-6.608-4.378-8.994s-6.577-3.731-10.526-3.74a16.975 16.975 0 0 0-5.337.849l19.245 16.443c.659-1.454.997-2.999.995-4.558z"/></symbol>
<symbol id="icon-group3" viewBox="0 0 66 32"><path d="M10.207 9.77h-.002c-1.862 0-3.371 1.361-3.371 3.04v.002c0 1.679 1.509 3.04 3.371 3.04h.002c1.862 0 3.371-1.361 3.371-3.04v-.002c0-1.679-1.509-3.04-3.371-3.04zM35.092 8.798c-.005-2.332-1.035-4.567-2.863-6.215S27.922.005 25.336 0c-2.587.004-5.067.932-6.896 2.582s-2.86 3.884-2.865 6.217v12.858s19.515-1.96 19.517-12.856v-.002zM0 25.877c.005 1.622.721 3.177 1.994 4.325s2.996 1.794 4.796 1.799c1.799-.005 3.523-.651 4.795-1.798s1.989-2.701 1.994-4.323v-8.947S0 18.298 0 25.878zm6.789 1.603c-.352 0-.695-.094-.988-.27s-.52-.426-.655-.719-.17-.615-.101-.926c.069-.311.238-.597.487-.821s.565-.377.91-.439c.345-.062.702-.03 1.027.091s.603.327.798.59c.195.264.3.573.3.891.001.211-.044.42-.133.615s-.22.373-.385.522c-.165.149-.362.268-.578.349s-.448.123-.682.123v-.006zM19.207 24.597v3.329h-.686v-3.329h.686zm1.326 1.422v.535h-1.514v-.535h1.514zm.16-1.422v.537h-1.674v-.537h1.674zm3.133 1.587v.158c0 .253-.034.48-.103.681s-.165.373-.29.515a1.25 1.25 0 0 1-.448.322 1.423 1.423 0 0 1-.574.112c-.209 0-.4-.037-.574-.112a1.29 1.29 0 0 1-.448-.322 1.5 1.5 0 0 1-.295-.514 2.09 2.09 0 0 1-.103-.681v-.158c0-.255.034-.482.103-.681.069-.201.165-.373.29-.514.127-.142.276-.25.448-.325.174-.075.365-.112.574-.112.21 0 .402.037.574.112.174.075.323.183.448.325.127.142.224.313.293.514.07.2.105.427.105.681zm-.693.158v-.162c0-.177-.016-.332-.048-.466s-.079-.247-.142-.338a.623.623 0 0 0-.538-.277.614.614 0 0 0-.535.277c-.061.091-.107.204-.139.338s-.048.29-.048.466v.162c0 .175.016.331.048.466.032.134.079.248.142.341.063.091.139.161.229.208s.193.071.309.071c.116 0 .219-.024.309-.071s.165-.117.226-.208c.061-.093.107-.207.139-.341.032-.136.048-.291.048-.466zm2.92.713a.447.447 0 0 0-.027-.16.308.308 0 0 0-.096-.133c-.047-.041-.114-.082-.199-.121s-.196-.081-.332-.123a4.267 4.267 0 0 1-.43-.165 1.775 1.775 0 0 1-.357-.213.952.952 0 0 1-.242-.286.786.786 0 0 1-.087-.377.79.79 0 0 1 .091-.377.872.872 0 0 1 .256-.293c.11-.082.239-.146.389-.19.151-.044.316-.066.496-.066.245 0 .46.044.642.133s.325.21.425.364c.102.154.153.33.153.528h-.681a.513.513 0 0 0-.062-.256.421.421 0 0 0-.183-.176.648.648 0 0 0-.306-.064.7.7 0 0 0-.297.055.393.393 0 0 0-.178.144.351.351 0 0 0-.059.201c0 .056.014.107.041.153.029.046.072.088.128.128s.126.077.208.112c.082.035.178.069.286.103.181.055.341.117.478.185.139.069.255.146.348.231a.851.851 0 0 1 .281.658c0 .145-.028.274-.085.389s-.138.211-.245.29c-.107.079-.234.139-.382.181s-.313.062-.496.062c-.165 0-.327-.021-.487-.064a1.486 1.486 0 0 1-.437-.199c-.13-.088-.233-.201-.311-.338s-.117-.3-.117-.487h.688c0 .104.016.191.048.263s.077.13.135.174c.059.044.13.076.21.096.082.02.172.03.27.03a.745.745 0 0 0 .293-.05.356.356 0 0 0 .228-.341zm2.641-2.458v3.329h-.684v-3.329h.684zm1.024 0v.537h-2.716v-.537h2.716zm2.625 2.794v.535h-1.772v-.535h1.772zm-1.548-2.794v3.329h-.686v-3.329h.686zm1.317 1.356v.521h-1.541v-.521h1.541zm.229-1.356v.537h-1.77v-.537h1.77zm.402 0h1.242c.255 0 .473.038.656.114.184.076.326.189.425.338s.149.333.149.551c0 .178-.03.332-.091.46a.848.848 0 0 1-.254.318 1.295 1.295 0 0 1-.382.201l-.217.114h-1.079l-.005-.535h.803c.12 0 .22-.021.3-.064s.139-.102.178-.178a.552.552 0 0 0 .062-.265c0-.107-.02-.199-.059-.277s-.1-.137-.181-.178-.182-.062-.304-.062h-.556v2.792h-.686v-3.329zm1.862 3.329-.759-1.484.725-.005.768 1.457v.032h-.734zm3.601-1.186h-.848v-.535h.848a.69.69 0 0 0 .32-.064c.082-.044.143-.105.181-.183s.057-.165.057-.263c0-.099-.019-.191-.057-.277s-.098-.154-.181-.206-.189-.078-.32-.078h-.611v2.792h-.686v-3.329h1.297c.261 0 .484.047.67.142.187.093.331.222.43.386s.149.353.149.565c0 .215-.05.401-.149.558s-.242.278-.43.364a1.602 1.602 0 0 1-.67.128zm3.956.651v.535H40.39v-.535h1.772zm-1.548-2.794v3.329h-.686v-3.329h.686zm1.317 1.356v.521H40.39v-.521h1.541zm.229-1.356v.537h-1.77v-.537h1.77zm1.936 0v3.329h-.684v-3.329h.684zm1.025 0v.537h-2.716v-.537h2.716zm2.625 2.794v.535h-1.772v-.535h1.772zm-1.548-2.794v3.329h-.686v-3.329h.686zm1.317 1.356v.521h-1.541v-.521h1.541zm.229-1.356v.537h-1.77v-.537h1.77zm.402 0h1.242c.255 0 .473.038.656.114.184.076.326.189.425.338s.149.333.149.551c0 .178-.031.332-.091.46a.848.848 0 0 1-.254.318 1.295 1.295 0 0 1-.382.201l-.217.114h-1.079l-.005-.535h.803c.12 0 .22-.021.3-.064s.139-.102.178-.178a.552.552 0 0 0 .062-.265c0-.107-.02-.199-.059-.277s-.1-.137-.181-.178a.669.669 0 0 0-.304-.062h-.556v2.792h-.686v-3.329zm1.861 3.329-.759-1.484.725-.005.768 1.457v.032h-.734zm2.872-.871a.447.447 0 0 0-.027-.16.308.308 0 0 0-.096-.133c-.047-.041-.114-.082-.199-.121s-.196-.081-.332-.123a4.267 4.267 0 0 1-.43-.165 1.775 1.775 0 0 1-.357-.213.952.952 0 0 1-.242-.286.786.786 0 0 1-.087-.377c0-.139.03-.264.091-.377a.872.872 0 0 1 .256-.293c.11-.082.239-.146.389-.19.151-.044.316-.066.496-.066.245 0 .46.044.642.133s.325.21.425.364c.102.154.153.33.153.528h-.681a.513.513 0 0 0-.062-.256.421.421 0 0 0-.183-.176.648.648 0 0 0-.306-.064.7.7 0 0 0-.297.055.393.393 0 0 0-.178.144.351.351 0 0 0-.059.201c0 .056.014.107.041.153.029.046.072.088.128.128s.126.077.208.112c.082.035.178.069.286.103.181.055.341.117.478.185.139.069.255.146.348.231a.851.851 0 0 1 .281.658c0 .145-.028.274-.085.389s-.138.211-.245.29c-.107.079-.234.139-.382.181s-.313.062-.496.062c-.165 0-.327-.021-.487-.064a1.486 1.486 0 0 1-.437-.199c-.13-.088-.233-.201-.311-.338s-.117-.3-.117-.487h.688c0 .104.016.191.048.263s.077.13.135.174c.059.044.13.076.21.096.082.02.172.03.27.03a.745.745 0 0 0 .293-.05.356.356 0 0 0 .228-.341z" /></symbol>
<symbol id="icon-group4" viewBox="0 0 44 32"><path d="M3.333 26.694c.171.19.262.429.257.673.009.16-.023.319-.091.466s-.174.279-.307.384a1.857 1.857 0 0 1-1.157.31H0v-4.266h1.993a1.85 1.85 0 0 1 1.104.283c.129.097.231.22.298.358s.098.289.089.44a.917.917 0 0 1-.232.652c-.155.17-.368.287-.607.334.27.044.514.174.688.365zM.947 26.05h.852a.869.869 0 0 0 .542-.142c.064-.052.114-.117.145-.189s.045-.15.037-.228c.006-.077-.007-.155-.038-.227s-.08-.137-.142-.19a.896.896 0 0 0-.558-.144H.947v1.119zm1.477 1.636c.068-.053.122-.12.157-.195s.05-.157.044-.238c.005-.082-.011-.165-.046-.24s-.09-.143-.16-.197a.95.95 0 0 0-.579-.154H.946v1.173h.905a.973.973 0 0 0 .572-.148zM7.408 28.528l-1.109-1.667h-.417v1.667h-.954v-4.266h1.806a1.91 1.91 0 0 1 1.257.363c.252.232.405.537.429.86s-.08.645-.295.905c-.223.23-.527.383-.861.433l1.181 1.705H7.408zM5.882 26.28h.78c.542 0 .813-.215.813-.646.005-.088-.009-.176-.044-.259s-.087-.158-.155-.221a.912.912 0 0 0-.613-.173h-.789l.009 1.298zM12.621 27.67H10.72l-.336.859h-1l1.745-4.218h1.081l1.739 4.218h-1l-.329-.859zm-.255-.646-.695-1.801-.694 1.801h1.389zM19.147 28.528H18.2l-2.123-2.901v2.901h-.944v-4.266h.944L18.2 27.18v-2.918h.947v4.266zM24.55 27.507a1.96 1.96 0 0 1-.857.752c-.412.187-.869.28-1.331.269h-1.685v-4.266h1.685c.461-.011.918.079 1.331.263.362.164.661.424.857.744.195.347.296.73.296 1.119s-.102.772-.296 1.119zm-1.084-.102c.27-.283.419-.645.419-1.018s-.149-.735-.419-1.018a1.766 1.766 0 0 0-1.185-.363h-.657v2.761h.657c.433.024.859-.106 1.185-.363zM13.214.533s12.22 4.154 11.961 10.164v10.166s-12.211-4.156-11.957-10.166L13.213.533zM36.062 18.483c2.308-1.43 4.978-2.316 7.764-2.576v-3.182c-3.211 1.114-5.935 3.134-7.764 5.758z" /><path  d="M34.675 19.442c1.889-3.424 5.164-6.067 9.151-7.384v-9.17S26.422 8.805 26.79 17.364v14.474s.776-.265 1.995-.761c0-.463 0-.929.056-1.398.36-3.974 2.459-7.656 5.834-10.237z" /><path d="M33.02 24.819c.091-1.004.295-1.997.609-2.963-2.102 2.229-3.374 4.995-3.639 7.909-.025.275-.039.55-.046.834a52.536 52.536 0 0 0 3.347-1.588 13.52 13.52 0 0 1-.271-4.191zM33.712 24.871a12.935 12.935 0 0 0 .215 3.795c4.755-2.561 10.098-6.519 9.892-11.302v-.417c-3.397.342-6.575 1.679-9.047 3.805a13.074 13.074 0 0 0-1.06 4.118z" /></symbol>
<symbol id="icon-group6" viewBox="0 0 67 32"><path d="M33.799 15.249a2.098 2.098 0 0 1-.431-1.417v-2.054c0-.63.143-1.108.428-1.435s.776-.49 1.472-.489c.654 0 1.118.139 1.392.418.299.355.445.79.412 1.229v.483h-1.169v-.489a2.47 2.47 0 0 0-.034-.478.464.464 0 0 0-.167-.284.676.676 0 0 0-.424-.111.714.714 0 0 0-.445.117.55.55 0 0 0-.194.313 2.349 2.349 0 0 0-.046.508v2.492c-.018.24.033.481.15.7.058.074.139.133.233.17s.199.05.302.039c.15.011.298-.03.414-.113a.5.5 0 0 0 .174-.303 2.78 2.78 0 0 0 .036-.499v-.506h1.169v.462c.033.457-.109.911-.404 1.291-.269.305-.726.458-1.399.458s-1.181-.163-1.47-.501zM38.668 15.269c-.295-.32-.443-.786-.443-1.402v-2.16c0-.61.148-1.072.443-1.385s.789-.469 1.482-.468c.688 0 1.179.156 1.474.468.295.313.446.775.446 1.385v2.16c0 .61-.15 1.078-.45 1.4s-.789.483-1.47.483-1.184-.163-1.482-.48zm2.026-.518c.106-.2.154-.42.14-.639v-2.645a1.172 1.172 0 0 0-.138-.627c-.059-.076-.142-.135-.239-.172s-.204-.05-.308-.037c-.105-.013-.212 0-.309.037s-.18.096-.24.172a1.146 1.146 0 0 0-.14.627v2.658c-.015.22.033.439.14.639.068.067.152.121.247.158a.828.828 0 0 0 .6 0 .747.747 0 0 0 .247-.158v-.013zM43.476 9.917h1.259l.947 3.986.968-3.986h1.225l.123 5.753h-.906l-.097-3.998-.935 3.998h-.726l-.968-4.013-.09 4.013h-.915l.114-5.753zM49.41 9.917h1.961c1.13 0 1.695.545 1.695 1.634 0 1.043-.595 1.564-1.784 1.563h-.668v2.557h-1.211l.007-5.753zm1.675 2.459c.12.013.241.004.356-.028s.221-.084.31-.154a.929.929 0 0 0 .174-.65 1.808 1.808 0 0 0-.058-.522c-.017-.057-.048-.111-.089-.158s-.094-.086-.153-.116a1.251 1.251 0 0 0-.54-.092h-.47v1.719h.47zM54.812 9.917h1.3l1.334 5.753h-1.128l-.264-1.327h-1.16l-.271 1.327h-1.145l1.334-5.753zm1.111 3.76-.453-2.415-.453 2.415h.906zM58.523 9.917h.847l1.622 3.282V9.917h1.005v5.753h-.806l-1.632-3.426v3.426H58.52l.002-5.753zM64.351 13.477l-1.349-3.552h1.135l.823 2.281.772-2.281h1.111l-1.332 3.552v2.194h-1.162v-2.194zM35.668 18.186v.301h-.988v2.338h-.414v-2.338h-.993v-.301h2.395zM38.764 20.824h-.32a.141.141 0 0 1-.09-.025.13.13 0 0 1-.053-.061l-.286-.627h-1.37l-.286.627a.172.172 0 0 1-.044.071.153.153 0 0 1-.09.025h-.32l1.211-2.639h.421l1.225 2.628zm-2.004-.979h1.143l-.484-1.074a1.85 1.85 0 0 1-.09-.249c-.017.05-.031.098-.046.14l-.044.111-.479 1.072zM40.851 20.565c.076.003.152.003.228 0a1.651 1.651 0 0 0 .368-.079c.053-.019.107-.042.162-.065v-.593h-.484c-.012.001-.024-.001-.035-.005s-.021-.009-.03-.016a.062.062 0 0 1-.024-.048v-.203h.939v1.011a1.907 1.907 0 0 1-.511.215c-.099.025-.2.043-.303.054a3.775 3.775 0 0 1-.353.017 1.843 1.843 0 0 1-.61-.098 1.492 1.492 0 0 1-.484-.276 1.259 1.259 0 0 1-.312-.418 1.32 1.32 0 0 1-.111-.547 1.356 1.356 0 0 1 .109-.552c.07-.156.176-.299.312-.418a1.47 1.47 0 0 1 .484-.274c.207-.067.427-.101.649-.098.113 0 .225.008.337.023a1.65 1.65 0 0 1 .53.171c.074.041.145.087.211.138l-.116.163c-.009.015-.023.027-.039.036s-.036.014-.055.014a.16.16 0 0 1-.075-.021 1.81 1.81 0 0 1-.119-.063 1.02 1.02 0 0 0-.162-.071 1.524 1.524 0 0 0-.223-.059 1.85 1.85 0 0 0-.307-.023 1.413 1.413 0 0 0-.467.073 1.03 1.03 0 0 0-.356.209.918.918 0 0 0-.225.328 1.236 1.236 0 0 0 0 .88 1.027 1.027 0 0 0 .595.541c.154.046.317.063.479.052zM44.711 20.523h1.322v.301h-1.726v-2.639h.414l-.01 2.338zM47.408 20.824h-.414v-2.639h.414v2.639zM48.948 18.198a.189.189 0 0 1 .063.048l1.77 1.989a.737.737 0 0 1 0-.094v-1.966h.361v2.649h-.208a.197.197 0 0 1-.09-.015.23.23 0 0 1-.065-.05l-1.767-1.987V20.823h-.346v-2.639h.215c.023 0 .046.004.068.012zM54.189 18.186v.29h-1.467v.871h1.189v.28h-1.189v.9h1.467v.29h-1.893v-2.632h1.893zM10.805 1.891l18.384 4.504v15.784l-18.384-4.502V1.891zM9.626.545v17.898l20.739 5.083V5.63L9.626.545z" /><path d="M20.742 31.834 0 26.747V8.851l20.742 5.085v17.898z" /><path d="m9.97 1.688 18.144 4.448-7.716 6.66-18.146-4.45L9.97 1.688zM9.626.545 0 8.851l20.742 5.085 9.624-8.306L9.627.545zM21.909 30.827l8.457-7.299-8.457-2.074v9.374z"/></symbol>
<symbol id="icon-group" viewBox="0 0 28 32"><path d="m4.085 0 4.771 4.546L0 4.541v22.054h23.149v-8.432l4.766 4.541V.001H4.085zm18.854 17.629L9.411 4.74h13.528v12.889zm-4.2 5.74H3.663V8.536h1.066v13.828h14.01v1.004zM6.67 30.68l-.562-1.155h-.464l.814 1.529v.891h.421v-.891l.814-1.529h-.462l-.562 1.155zm2.071-1.155h.1l.914 2.42h-.439l-.196-.567h-.937l-.195.567h-.437l.911-2.42h.279zm-.444 1.522h.709l-.355-1.027-.354 1.027zm2.925-.401-.053-.068a1.266 1.266 0 0 1-.145-.238.647.647 0 0 1 .026-.565.519.519 0 0 1 .221-.209.71.71 0 0 1 .334-.075c.123 0 .229.025.317.075.09.049.158.114.206.194.049.081.073.17.073.266 0 .076-.014.146-.042.209s-.066.121-.115.173a1.188 1.188 0 0 1-.17.148l-.168.122.479.566a.966.966 0 0 0 .105-.452h.346c0 .117-.012.229-.035.334a1.039 1.039 0 0 1-.177.4l.355.418h-.464l-.141-.165a.952.952 0 0 1-.248.136 1.107 1.107 0 0 1-.376.063c-.161 0-.3-.029-.417-.088s-.208-.14-.273-.243a.665.665 0 0 1-.095-.354c0-.099.021-.185.061-.259a.797.797 0 0 1 .168-.209c.066-.059.14-.119.224-.178zm.198.243-.05.036a.61.61 0 0 0-.131.138.394.394 0 0 0-.023.409.344.344 0 0 0 .135.138c.06.033.132.05.218.05a.62.62 0 0 0 .391-.137l-.539-.633zm.096-.442.148-.1a.552.552 0 0 0 .15-.136.3.3 0 0 0 .045-.17.241.241 0 0 0-.255-.233.246.246 0 0 0-.231.143.338.338 0 0 0-.028.141c0 .05.013.101.038.155a.994.994 0 0 0 .133.2zm4.234.71h-.416a.776.776 0 0 1-.076.268.383.383 0 0 1-.168.165.626.626 0 0 1-.288.056c-.098 0-.181-.019-.251-.058s-.127-.094-.173-.165a.822.822 0 0 1-.1-.254 1.62 1.62 0 0 1-.032-.332v-.204c0-.129.012-.243.035-.342.024-.101.06-.186.108-.254s.107-.121.178-.156a.557.557 0 0 1 .249-.053c.116 0 .211.02.283.06a.378.378 0 0 1 .163.17.756.756 0 0 1 .073.268h.416a1.046 1.046 0 0 0-.136-.43c-.073-.125-.176-.223-.309-.294s-.296-.106-.489-.106c-.152 0-.289.027-.411.08a.862.862 0 0 0-.311.231c-.086.1-.153.22-.2.361a1.546 1.546 0 0 0-.068.472v.201c0 .174.022.331.067.472.045.141.111.261.196.361a.878.878 0 0 0 .307.229c.12.053.254.08.404.08.195 0 .361-.035.497-.106s.242-.168.317-.291a.958.958 0 0 0 .133-.424zm2.309-.356v-.133c0-.183-.024-.346-.073-.49a1.08 1.08 0 0 0-.204-.371.868.868 0 0 0-.317-.234 1.005 1.005 0 0 0-.409-.081c-.148 0-.284.027-.407.081a.876.876 0 0 0-.317.234 1.084 1.084 0 0 0-.206.371 1.52 1.52 0 0 0-.073.49v.133c0 .183.024.347.073.492.05.145.12.269.209.371s.196.18.317.234c.123.053.259.08.407.08.15 0 .286-.027.409-.08a.879.879 0 0 0 .316-.234c.089-.102.157-.226.204-.371s.072-.309.072-.492zm-.417-.136v.136c0 .135-.013.255-.04.359a.777.777 0 0 1-.113.264.493.493 0 0 1-.431.214.556.556 0 0 1-.246-.053.527.527 0 0 1-.186-.161c-.051-.072-.09-.16-.116-.264s-.04-.224-.04-.359v-.136c0-.135.013-.254.04-.357a.784.784 0 0 1 .115-.261.5.5 0 0 1 .43-.215c.092 0 .175.018.248.055a.47.47 0 0 1 .184.16c.051.07.089.157.115.261.027.103.04.222.04.357z" /></symbol><symbol id="icon-instagram" viewBox="0 0 32 32"><path d="M31.969 9.408c-.075-1.7-.35-2.869-.744-3.882a7.803 7.803 0 0 0-1.85-2.838A7.867 7.867 0 0 0 26.543.844C25.524.45 24.361.175 22.661.1 20.948.019 20.404 0 16.06 0s-4.888.019-6.595.094c-1.7.075-2.869.35-3.882.744a7.803 7.803 0 0 0-2.838 1.85A7.867 7.867 0 0 0 .901 5.52C.507 6.539.232 7.702.157 9.402c-.081 1.713-.1 2.257-.1 6.601s.019 4.888.094 6.595c.075 1.7.35 2.869.744 3.882a7.895 7.895 0 0 0 1.85 2.838 7.867 7.867 0 0 0 2.832 1.844c1.019.394 2.182.669 3.882.744 1.706.075 2.25.094 6.595.094s4.888-.018 6.595-.094c1.7-.075 2.869-.35 3.882-.744a8.181 8.181 0 0 0 4.682-4.682c.394-1.019.669-2.182.744-3.882.075-1.707.094-2.251.094-6.595s-.006-4.888-.081-6.595zm-2.882 13.065c-.069 1.563-.331 2.407-.55 2.969a5.307 5.307 0 0 1-3.038 3.038c-.563.219-1.413.481-2.969.55-1.688.075-2.194.094-6.464.094s-4.782-.018-6.464-.094c-1.563-.069-2.407-.331-2.969-.55a4.926 4.926 0 0 1-1.838-1.194 4.974 4.974 0 0 1-1.194-1.838c-.219-.563-.481-1.413-.55-2.969-.075-1.688-.094-2.194-.094-6.464s.019-4.782.094-6.464c.069-1.563.331-2.407.55-2.969a4.868 4.868 0 0 1 1.2-1.838A4.974 4.974 0 0 1 6.639 3.55c.563-.219 1.413-.481 2.969-.55 1.688-.075 2.194-.094 6.464-.094 4.276 0 4.782.019 6.464.094 1.563.069 2.407.331 2.969.55a4.914 4.914 0 0 1 1.838 1.194 4.974 4.974 0 0 1 1.194 1.838c.219.563.481 1.413.55 2.969.075 1.688.094 2.194.094 6.464s-.019 4.77-.094 6.457z" style="fill:var(--color3, #f4f4fd)"/><path fill="#f4f4fd" d="M16.059 7.782c-4.538 0-8.22 3.682-8.22 8.22s3.682 8.22 8.22 8.22 8.22-3.682 8.22-8.22-3.682-8.22-8.22-8.22zm0 13.553a5.333 5.333 0 0 1 0-10.664 5.333 5.333 0 0 1 0 10.664zM26.524 7.457a1.919 1.919 0 1 1-3.838 0 1.919 1.919 0 0 1 3.838 0z" style="fill:var(--color3, #f4f4fd)"/></symbol><symbol id="icon-linkedin" viewBox="0 0 32 32"><path d="M31.992 32v-.001H32V20.263c0-5.741-1.236-10.164-7.948-10.164-3.227 0-5.392 1.771-6.276 3.449h-.093v-2.913h-6.364v21.364h6.627V21.42c0-2.785.528-5.479 3.977-5.479 3.399 0 3.449 3.179 3.449 5.657v10.401h6.62zM.528 10.636h6.635V32H.528V10.636zM3.843 0C1.722 0 0 1.721 0 3.843s1.721 3.879 3.843 3.879c2.121 0 3.843-1.757 3.843-3.879A3.846 3.846 0 0 0 3.843 0z" style="fill:var(--color3, #f4f4fd)"/></symbol><symbol id="icon-logo-footer" viewBox="0 0 155 32"><path fill="#4d5ae5" d="M8.581 7.651h3.624l1.776 5.448 1.776-5.448h3.648l-2.904 7.92 1.728 4.536 4.272-12.48h4.296l-6.648 17.04h-3.408l-2.76-6.672-2.736 6.672H7.813L1.189 7.627h4.272l4.296 12.48 1.68-4.536-2.856-7.92zm32.393 13.56v3.456H28.998V7.627h11.76v3.456h-7.824v3.312h6.72v3.192h-6.72v3.624h8.04zm17.199-.912c0 .976-.264 1.792-.792 2.448-.512.64-1.208 1.12-2.088 1.44s-1.848.48-2.904.48h-8.304V7.627h9.48c.8 0 1.488.216 2.064.648.592.416 1.04.96 1.344 1.632.32.672.48 1.368.48 2.088 0 .8-.208 1.568-.624 2.304-.416.72-1.024 1.264-1.824 1.632.976.288 1.744.8 2.304 1.536.576.736.864 1.68.864 2.832zm-4.008-.792c0-.368-.072-.688-.216-.96a1.7 1.7 0 0 0-.576-.672 1.28 1.28 0 0 0-.816-.264h-4.536v3.72h4.368c.336 0 .632-.08.888-.24.272-.16.488-.376.648-.648s.24-.584.24-.936zm-6.144-8.52v3.528h3.864c.288 0 .552-.064.792-.192a1.54 1.54 0 0 0 .624-.576c.16-.272.24-.608.24-1.008 0-.384-.072-.704-.216-.96a1.323 1.323 0 0 0-.528-.576 1.39 1.39 0 0 0-.768-.216h-4.008z" style="fill:var(--color2, #4d5ae5)"/><path fill="#f4f4fd" d="M71.856 12.619c-.048-.08-.216-.2-.504-.36a10.456 10.456 0 0 0-2.496-1.056 5.65 5.65 0 0 0-1.536-.216c-.672 0-1.192.12-1.56.36-.368.224-.552.576-.552 1.056 0 .384.136.688.408.912.288.224.696.424 1.224.6.528.16 1.176.352 1.944.576 1.088.288 2.032.64 2.832 1.056.8.4 1.408.92 1.824 1.56.432.64.648 1.488.648 2.544 0 .96-.176 1.776-.528 2.448a4.493 4.493 0 0 1-1.44 1.608c-.592.4-1.272.696-2.04.888-.768.176-1.56.264-2.376.264-.832 0-1.688-.08-2.568-.24a16.01 16.01 0 0 1-2.496-.72c-.8-.32-1.536-.704-2.208-1.152l1.728-3.432c.064.08.272.232.624.456.352.208.784.432 1.296.672.528.224 1.112.424 1.752.6s1.288.264 1.944.264c.704 0 1.224-.112 1.56-.336.352-.224.528-.536.528-.936 0-.432-.184-.768-.552-1.008-.352-.24-.84-.456-1.464-.648-.608-.192-1.312-.408-2.112-.648-1.04-.32-1.904-.68-2.592-1.08-.672-.4-1.176-.888-1.512-1.464-.32-.576-.48-1.296-.48-2.16 0-1.2.28-2.208.84-3.024a5.305 5.305 0 0 1 2.304-1.872c.96-.432 2.008-.648 3.144-.648.8 0 1.568.096 2.304.288.752.192 1.448.432 2.088.72.656.288 1.24.576 1.752.864l-1.728 3.264zm18.246-1.536h-5.184v13.584h-3.936V11.083h-5.208V7.627h14.328v3.456zm9.962 13.728c-1.36 0-2.52-.224-3.48-.672-.96-.464-1.744-1.088-2.352-1.872a8.39 8.39 0 0 1-1.32-2.712 12.476 12.476 0 0 1-.408-3.216V7.627h3.936v8.712c0 .64.064 1.264.192 1.872.128.592.336 1.12.624 1.584s.656.832 1.104 1.104c.464.272 1.032.408 1.704.408.688 0 1.264-.136 1.728-.408a3.239 3.239 0 0 0 1.104-1.128c.272-.48.472-1.016.6-1.608s.192-1.2.192-1.824V7.627h3.936v8.712c0 1.184-.152 2.288-.456 3.312a7.836 7.836 0 0 1-1.344 2.712c-.608.768-1.392 1.368-2.352 1.8-.944.432-2.08.648-3.408.648zm11.33-.144V7.627h6.36c1.872 0 3.432.384 4.68 1.152a7.243 7.243 0 0 1 2.856 3.072c.64 1.28.96 2.704.96 4.272 0 1.728-.352 3.232-1.056 4.512s-1.696 2.272-2.976 2.976c-1.264.704-2.752 1.056-4.464 1.056h-6.36zm10.848-8.544c0-.992-.176-1.864-.528-2.616-.352-.768-.864-1.36-1.536-1.776-.672-.432-1.48-.648-2.424-.648h-2.424v10.128h2.424c.96 0 1.768-.216 2.424-.648a4.288 4.288 0 0 0 1.536-1.824c.352-.784.528-1.656.528-2.616zm7.051 8.544V7.627h3.936v17.04h-3.936zm15.379.144c-1.28 0-2.44-.24-3.48-.72a8.805 8.805 0 0 1-2.664-1.968 9.254 9.254 0 0 1-1.704-2.784c-.4-1.04-.6-2.112-.6-3.216 0-1.136.208-2.216.624-3.24a9.158 9.158 0 0 1 1.776-2.736c.768-.816 1.672-1.456 2.712-1.92s2.176-.696 3.408-.696c1.264 0 2.408.248 3.432.744a7.971 7.971 0 0 1 2.664 1.968 8.94 8.94 0 0 1 1.728 2.808c.4 1.024.6 2.072.6 3.144 0 1.136-.208 2.216-.624 3.24s-1.008 1.944-1.776 2.76a8.876 8.876 0 0 1-2.712 1.92c-1.024.464-2.152.696-3.384.696zm-4.44-8.64c0 .656.096 1.296.288 1.92.192.608.472 1.152.84 1.632.384.48.856.864 1.416 1.152s1.2.432 1.92.432c.752 0 1.408-.144 1.968-.432.56-.304 1.024-.704 1.392-1.2s.64-1.048.816-1.656a6.413 6.413 0 0 0 .288-1.896c0-.656-.096-1.288-.288-1.896s-.48-1.152-.864-1.632c-.384-.496-.856-.88-1.416-1.152s-1.192-.408-1.896-.408c-.752 0-1.408.144-1.968.432a4.271 4.271 0 0 0-1.392 1.176 5.214 5.214 0 0 0-.84 1.656 6.699 6.699 0 0 0-.264 1.872z" style="fill:var(--color3, #f4f4fd)"/></symbol><symbol id="icon-logo" viewBox="0 0 155 32"><path fill="#4d5ae5" d="M8.581 7.651h3.624l1.776 5.448 1.776-5.448h3.648l-2.904 7.92 1.728 4.536 4.272-12.48h4.296l-6.648 17.04h-3.408l-2.76-6.672-2.736 6.672H7.813L1.189 7.627h4.272l4.296 12.48 1.68-4.536-2.856-7.92zm32.393 13.56v3.456H28.998V7.627h11.76v3.456h-7.824v3.312h6.72v3.192h-6.72v3.624h8.04zm17.199-.912c0 .976-.264 1.792-.792 2.448-.512.64-1.208 1.12-2.088 1.44s-1.848.48-2.904.48h-8.304V7.627h9.48c.8 0 1.488.216 2.064.648.592.416 1.04.96 1.344 1.632.32.672.48 1.368.48 2.088 0 .8-.208 1.568-.624 2.304-.416.72-1.024 1.264-1.824 1.632.976.288 1.744.8 2.304 1.536.576.736.864 1.68.864 2.832zm-4.008-.792c0-.368-.072-.688-.216-.96a1.7 1.7 0 0 0-.576-.672 1.28 1.28 0 0 0-.816-.264h-4.536v3.72h4.368c.336 0 .632-.08.888-.24.272-.16.488-.376.648-.648s.24-.584.24-.936zm-6.144-8.52v3.528h3.864c.288 0 .552-.064.792-.192a1.54 1.54 0 0 0 .624-.576c.16-.272.24-.608.24-1.008 0-.384-.072-.704-.216-.96a1.323 1.323 0 0 0-.528-.576 1.39 1.39 0 0 0-.768-.216h-4.008z" style="fill:var(--color2, #4d5ae5)"/><path fill="#2e2f42" d="M71.856 12.619c-.048-.08-.216-.2-.504-.36a10.456 10.456 0 0 0-2.496-1.056 5.65 5.65 0 0 0-1.536-.216c-.672 0-1.192.12-1.56.36-.368.224-.552.576-.552 1.056 0 .384.136.688.408.912.288.224.696.424 1.224.6.528.16 1.176.352 1.944.576 1.088.288 2.032.64 2.832 1.056.8.4 1.408.92 1.824 1.56.432.64.648 1.488.648 2.544 0 .96-.176 1.776-.528 2.448a4.493 4.493 0 0 1-1.44 1.608c-.592.4-1.272.696-2.04.888-.768.176-1.56.264-2.376.264-.832 0-1.688-.08-2.568-.24a16.01 16.01 0 0 1-2.496-.72c-.8-.32-1.536-.704-2.208-1.152l1.728-3.432c.064.08.272.232.624.456.352.208.784.432 1.296.672.528.224 1.112.424 1.752.6s1.288.264 1.944.264c.704 0 1.224-.112 1.56-.336.352-.224.528-.536.528-.936 0-.432-.184-.768-.552-1.008-.352-.24-.84-.456-1.464-.648-.608-.192-1.312-.408-2.112-.648-1.04-.32-1.904-.68-2.592-1.08-.672-.4-1.176-.888-1.512-1.464-.32-.576-.48-1.296-.48-2.16 0-1.2.28-2.208.84-3.024a5.305 5.305 0 0 1 2.304-1.872c.96-.432 2.008-.648 3.144-.648.8 0 1.568.096 2.304.288.752.192 1.448.432 2.088.72.656.288 1.24.576 1.752.864l-1.728 3.264zm18.246-1.536h-5.184v13.584h-3.936V11.083h-5.208V7.627h14.328v3.456zm9.962 13.728c-1.36 0-2.52-.224-3.48-.672-.96-.464-1.744-1.088-2.352-1.872a8.39 8.39 0 0 1-1.32-2.712 12.476 12.476 0 0 1-.408-3.216V7.627h3.936v8.712c0 .64.064 1.264.192 1.872.128.592.336 1.12.624 1.584s.656.832 1.104 1.104c.464.272 1.032.408 1.704.408.688 0 1.264-.136 1.728-.408a3.239 3.239 0 0 0 1.104-1.128c.272-.48.472-1.016.6-1.608s.192-1.2.192-1.824V7.627h3.936v8.712c0 1.184-.152 2.288-.456 3.312a7.836 7.836 0 0 1-1.344 2.712c-.608.768-1.392 1.368-2.352 1.8-.944.432-2.08.648-3.408.648zm11.33-.144V7.627h6.36c1.872 0 3.432.384 4.68 1.152a7.243 7.243 0 0 1 2.856 3.072c.64 1.28.96 2.704.96 4.272 0 1.728-.352 3.232-1.056 4.512s-1.696 2.272-2.976 2.976c-1.264.704-2.752 1.056-4.464 1.056h-6.36zm10.848-8.544c0-.992-.176-1.864-.528-2.616-.352-.768-.864-1.36-1.536-1.776-.672-.432-1.48-.648-2.424-.648h-2.424v10.128h2.424c.96 0 1.768-.216 2.424-.648a4.288 4.288 0 0 0 1.536-1.824c.352-.784.528-1.656.528-2.616zm7.051 8.544V7.627h3.936v17.04h-3.936zm15.379.144c-1.28 0-2.44-.24-3.48-.72a8.805 8.805 0 0 1-2.664-1.968 9.254 9.254 0 0 1-1.704-2.784c-.4-1.04-.6-2.112-.6-3.216 0-1.136.208-2.216.624-3.24a9.158 9.158 0 0 1 1.776-2.736c.768-.816 1.672-1.456 2.712-1.92s2.176-.696 3.408-.696c1.264 0 2.408.248 3.432.744a7.971 7.971 0 0 1 2.664 1.968 8.94 8.94 0 0 1 1.728 2.808c.4 1.024.6 2.072.6 3.144 0 1.136-.208 2.216-.624 3.24s-1.008 1.944-1.776 2.76a8.876 8.876 0 0 1-2.712 1.92c-1.024.464-2.152.696-3.384.696zm-4.44-8.64c0 .656.096 1.296.288 1.92.192.608.472 1.152.84 1.632.384.48.856.864 1.416 1.152s1.2.432 1.92.432c.752 0 1.408-.144 1.968-.432.56-.304 1.024-.704 1.392-1.2s.64-1.048.816-1.656a6.413 6.413 0 0 0 .288-1.896c0-.656-.096-1.288-.288-1.896s-.48-1.152-.864-1.632c-.384-.496-.856-.88-1.416-1.152s-1.192-.408-1.896-.408c-.752 0-1.408.144-1.968.432a4.271 4.271 0 0 0-1.392 1.176 5.214 5.214 0 0 0-.84 1.656 6.699 6.699 0 0 0-.264 1.872z" style="fill:var(--color1, #2e2f42)"/></symbol><symbol id="icon-twitter" viewBox="0 0 32 32"><path d="M32 6.078c-1.19.522-2.458.868-3.78 1.036a6.523 6.523 0 0 0 2.886-3.626 13.11 13.11 0 0 1-4.16 1.588A6.574 6.574 0 0 0 22.154 3c-3.632 0-6.556 2.948-6.556 6.562 0 .52.044 1.02.152 1.496-5.454-.266-10.28-2.88-13.522-6.862a6.605 6.605 0 0 0-.898 3.316 6.57 6.57 0 0 0 2.914 5.452 6.479 6.479 0 0 1-2.964-.808v.072c0 3.188 2.274 5.836 5.256 6.446a6.548 6.548 0 0 1-1.72.216 5.8 5.8 0 0 1-1.242-.112c.85 2.598 3.262 4.508 6.13 4.57a13.182 13.182 0 0 1-8.134 2.798c-.538 0-1.054-.024-1.57-.09A18.469 18.469 0 0 0 10.064 29c12.072 0 18.672-10 18.672-18.668 0-.29-.01-.57-.024-.848A13.087 13.087 0 0 0 32 6.078z" style="fill:var(--color3, #f4f4fd)"/></symbol>
<symbol id="icon-vector" viewBox="0 0 32 32"><path d="M32 3.224l-3.224-3.224-12.776 12.776-12.776-12.776-3.224 3.224 12.776 12.776-12.776 12.776 3.224 3.224 12.776-12.776 12.776 12.776 3.224-3.224-12.776-12.776 12.776-12.776z"></path>
</symbol><symbol id="icon-subscribe" viewBox="0 0 38 32">
<path d="M38.4 0l-38.4 18 12.272 3.787 18.928-14.787-14.397 16.186 0.011 0.005-0.014-0.005v8.814l6.882-6.691 8.72 2.691 5.998-28z"></path>
</symbol><symbol id="icon-name" viewBox="0 0 32 32">
<path d="M16 16c2.946 0 5.333-2.388 5.333-5.333s-2.388-5.333-5.333-5.333v0c-2.946 0-5.333 2.388-5.333 5.333s2.388 5.333 5.333 5.333v0zM16 18.667c-3.561 0-10.667 1.787-10.667 5.333v1.333c0 0.732 0.599 1.333 1.333 1.333h18.667c0.732 0 1.333-0.601 1.333-1.333v-1.333c0-3.547-7.108-5.333-10.667-5.333z"></path>
</symbol><symbol id="icon-tel" viewBox="0 0 32 32">
<path d="M28.864 21.822l-4.524-0.517c-0.124-0.015-0.267-0.024-0.413-0.024-0.98 0-1.867 0.398-2.509 1.041l-3.276 3.276c-5.081-2.621-9.119-6.659-11.671-11.59l-0.070-0.149 3.298-3.296c0.642-0.641 1.038-1.528 1.038-2.507 0-0.146-0.009-0.289-0.026-0.43l0.002 0.017-0.517-4.49c-0.213-1.784-1.717-3.153-3.541-3.153-0.001 0-0.003 0-0.004 0h-3.082c-2.014 0-3.687 1.674-3.562 3.687 0.943 15.212 13.11 27.362 28.305 28.308 2.014 0.123 3.687-1.551 3.687-3.564v-3.082c0-0.006 0-0.013 0-0.020 0-1.811-1.363-3.303-3.12-3.506l-0.016-0.002z"></path></symbol>
<symbol id="icon-email" viewBox="0 0 24 32">
<path d="M20 8h-16c-1.1 0-1.989 0.9-1.989 2l-0.011 12c0 1.1 0.9 2 2 2h16c1.1 0 2-0.9 2-2v-12c0-1.1-0.9-2-2-2zM19.6 12.251l-7.069 4.419c-0.151 0.094-0.334 0.15-0.531 0.15s-0.38-0.056-0.535-0.153l0.004 0.002-7.069-4.419c-0.252-0.15-0.418-0.422-0.418-0.731 0-0.469 0.38-0.849 0.849-0.849 0.174 0 0.337 0.053 0.471 0.143l6.697 4.187 6.7-4.191c0.132-0.088 0.294-0.141 0.468-0.141 0.469 0 0.849 0.38 0.849 0.849 0 0.31-0.166 0.581-0.414 0.729l-0.004 0.002z"></path>
</symbol><symbol id="icon-checked" viewBox="0 0 43 32">
<path d="M30.523 0.68c0.439-0.425 1.039-0.687 1.699-0.687 1.338 0 2.425 1.074 2.445 2.407l0 0.002c0.001 0.019 0.001 0.041 0.001 0.063 0 0.643-0.245 1.229-0.648 1.669l0.002-0.002-13.051 16.411c-0.45 0.485-1.090 0.788-1.802 0.788-0.33 0-0.645-0.065-0.932-0.183l0.016 0.006c-0.318-0.131-0.589-0.316-0.816-0.544l-0-0-8.656-8.701c-0.483-0.451-0.784-1.092-0.784-1.803 0-0.334 0.067-0.653 0.187-0.944l-0.006 0.016c0.376-0.912 1.258-1.542 2.287-1.542 0.012 0 0.023 0 0.035 0l-0.002-0c0.692 0.013 1.312 0.312 1.748 0.782l0.001 0.002 6.851 6.885 11.36-14.555c0.022-0.026 0.043-0.050 0.066-0.072l-0.002-0z"></path>
</symbol><symbol id="icon-close" viewBox="0 0 32 32">
<path fill="#e7e9fc" style="fill: var(--color1, #e7e9fc); stroke: var(--color2, #2e2f42)" opacity="0.1" stroke="#2e2f42" stroke-linejoin="miter" stroke-linecap="butt" stroke-miterlimit="4" stroke-width="1.3333" d="M31.333 16c0 8.468-6.865 15.333-15.333 15.333s-15.333-6.865-15.333-15.333c0-8.468 6.865-15.333 15.333-15.333s15.333 6.865 15.333 15.333z"></path>
<path fill="#2e2f42" style="fill: var(--color2, #2e2f42)" d="M21.333 11.741l-1.075-1.075-4.259 4.259-4.259-4.259-1.075 1.075 4.259 4.259-4.259 4.259 1.075 1.075 4.259-4.259 4.259 4.259 1.075-1.075-4.259-4.259 4.259-4.259z"></path>
</symbol><symbol xmlns="http://www.w3.org/2000/svg" fill="none" viewBox="0 0 43 39" id="icon-burger">
    <g clip-path="url(#a)">
      <path stroke="#2E2F42" stroke-linecap="round" stroke-linejoin="round" stroke-width="3" d="M7.348 28.043h29.539M7.348 18.735h29.539M7.348 9.428h29.539"></path>
    </g>
    <defs>
      <clipPath id="a">
        <path fill="#fff" d="M6 8h32v22H6z"></path>
      </clipPath>
    </defs>
  </symbol>
</defs></svg>
